<svg 
    xmlns="http://www.w3.org/2000/svg" 
    xmlns:xlink="http://www.w3.org/1999/xlink" version="1.1" x="0px" y="0px" viewBox="0 0 90 112.5" enable-background="new 0 0 90 90" xml:space="preserve">
    <path d="M41.1,15.2c0,0,1.6-3.5,2.3-4s1.9-1.3,1.9-1.7s-0.1-2.1,0.2-2.1s3.8,4.6,4.2,5.6c0.4,1,0.5,2.7,1,2.9s5.3,0,8.5,0.7  s7,1.1,14.7,11.1s13.7,18.8,14.5,19.8c0.8,1.1,0.4,2-0.9,1.5C86.2,48.5,71.9,40.2,67,38s-11.2-4.5-14.7-1.7  c-3.4,2.8-3.3,6.2-3.3,9.7c0,3.4,0.4,13.9,0.5,15.8c0,1.9,0.2,6.4,0.3,7.2c0.1,0.8,0.1,4.6,0.2,5.2c0,0.6,0.3,4.3,0.3,5.1  c0,0.8-0.1,2,0,2.7c0.1,0.7,0.3,3.9-0.1,4c-0.4,0-1.1-4.3-1.2-6.5s-1.7-13.1-1.8-14.8s-0.7-7.8-1-8.6s-0.4-1.9-1.2-1.9  S44,57.2,43.5,61s-1.8,19.4-1.9,20.4c-0.1,0.9-0.8,2.3-1,1.3c-0.1-1.1,0.8-29.6,0.9-30.7c0-1.1,0.6-6.6,0.4-7.5  c-0.2-0.8-1.4-7.1-2.5-8.6c-1.1-1.6-1.1-2.5-4.9-1.2c-3.7,1.3-20.2,8.4-21.5,9.1s-5.7,3.1-6.1,2.7s2.6-5.6,5.2-8.9  c2.6-3.2,11.1-12.4,15.4-15.3s8.4-5.9,10.1-6.3C39.4,15.5,41.1,15.2,41.1,15.2z"/>
</svg>